<svg width="600" height="600" viewBox="0 0 600 600" fill="none" xmlns="http://www.w3.org/2000/svg">
<circle cx="300" cy="300" r="300" fill="white"/>
<path d="M152 228.435C152 227.047 152.643 225.738 153.741 224.889L308.212 105.576C311.157 103.301 315.43 105.4 315.43 109.121V150.765C315.43 152.153 314.787 153.462 313.689 154.311L159.219 273.624C156.274 275.899 152 273.8 152 270.079V228.435Z" fill="#181818"/>
<path d="M216.512 251.372C216.512 249.985 217.155 248.675 218.254 247.827L372.724 128.513C375.669 126.239 379.943 128.338 379.943 132.059V173.703C379.943 175.09 379.299 176.4 378.201 177.248L223.731 296.562C220.786 298.836 216.512 296.737 216.512 293.016V251.372Z" fill="#181818"/>
<path d="M152 373.228C152 371.841 152.643 370.531 153.741 369.683L308.212 250.369C311.157 248.094 315.43 250.194 315.43 253.915V295.559C315.43 296.946 314.787 298.256 313.689 299.104L159.219 418.418C156.274 420.692 152 418.593 152 414.872V373.228Z" fill="#181818"/>
<path d="M216.512 396.166C216.512 394.779 217.155 393.469 218.254 392.621L372.724 273.307C375.669 271.032 379.943 273.132 379.943 276.853V318.497C379.943 319.884 379.299 321.194 378.201 322.042L223.731 441.356C220.786 443.63 216.512 441.531 216.512 437.81V396.166Z" fill="#181818"/>
<path d="M411.44 426.92C405.04 426.92 399.52 424.76 394.88 420.44C390.4 415.96 388.16 410.28 388.16 403.4C388.16 396.52 390.4 391 394.88 386.84C399.52 382.52 405.04 380.36 411.44 380.36C418 380.36 423.52 382.52 428 386.84C432.48 391 434.72 396.52 434.72 403.4C434.72 410.28 432.48 415.96 428 420.44C423.52 424.76 418 426.92 411.44 426.92Z" fill="#46F2B6"/>
</svg>
