<svg id="Layer_1" data-name="Layer 1" xmlns="http://www.w3.org/2000/svg" viewBox="0 0 638.03 450.26"><defs><style>.cls-1{fill:none;stroke:#fff;stroke-miterlimit:10;stroke-width:0.05px;opacity:0;}.cls-2{fill:gray;}.cls-3{fill:#ffe504;}</style></defs><title>Ernst &amp;amp; Young Logo Vector</title><polygon class="cls-1" points="63.62 186.43 574.38 0.04 574.38 96.28 63.62 186.43"/><path class="cls-2" d="M442.29,573.13h9.1l1.23-.24,1-.25,1-.49.49-.49.49-.49.25-.74.25-1.48-.25-1-.25-.74-.24-.74-.49-.49-.74-.49-1-.25L450.9,565h-8.61Zm0,17h10.33l1.23-.25,1-.5.73-.74.74-.73.49-1,.25-1,.25-1.23-.25-1.23-.25-1.22-.49-1-.49-.74-1-.49-1-.49-1-.25H442.29Zm-6.89,6.38V558.38h16.24l2.46.24,2.46.5,2,.74,1.72,1.22,1.48,1.48,1,1.72.49,2,.25,2.21-.25,1-.24,1.23-.25,1-.49,1.23-.74.73-.74,1-.74.74-1,.49,1.72,1,1,.74,1,1,.74,1,.74,1.47.24,1.48.25,2-.25,2.71-.74,2.46-1,2-1.48,1.72-2,1.47-2.22,1-2.7.49-3,.24Z" transform="translate(-181 -206.6)"/><path class="cls-1" d="M451.39,573.13h-9.1V565h8.61l2.21.24,1,.25.74.49.49.49.24.74.25.74.25,1-.25,1.48-.25.74-.49.49-.49.49-1,.49-1,.25Zm0,17h-9.1V579.28h10.58l1,.25,1,.49,1,.49.49.74.49,1,.25,1.22.25,1.23-.25,1.23-.25,1-.49,1-.74.73-.73.74-1,.5-1.23.25Zm13.29-5.67h0l-.25-2-.24-1.48-.74-1.47-.74-1-1-1-1-.74-1.72-1,1-.49.74-.74.74-1,.74-.73.49-1.23.25-1,.24-1.23.25-1-.25-2.22-.49-2-1-1.72-1.48-1.48-1.72-1.23-2-.74-2.46-.49-2.46-.24H435.4v38.11h16l3-.25,2.7-.48,2.22-1,2-1.47,1.48-1.72,1-2,.74-2.46Z" transform="translate(-181 -206.6)"/><polygon class="cls-2" points="297.46 390.39 295.98 390.14 294.75 389.9 293.52 389.16 292.54 388.67 291.8 387.69 290.32 385.96 289.34 384 288.85 381.78 288.6 379.82 288.6 377.85 288.6 362.11 295.49 362.11 295.49 377.36 295.49 379.08 295.74 380.55 296.23 381.54 296.72 382.52 297.46 383.26 298.2 383.75 299.43 384.25 300.66 384.25 301.64 384.25 302.87 383.75 303.61 383.26 304.35 382.52 305.09 381.54 305.33 380.55 305.58 379.08 305.82 377.6 305.82 362.11 312.46 362.11 312.46 389.9 305.82 389.9 305.82 387.69 304.35 388.91 302.87 389.9 300.9 390.39 298.93 390.64 297.46 390.39"/><polygon class="cls-1" points="298.93 390.63 298.93 390.63 300.9 390.39 302.87 389.9 304.35 388.91 305.82 387.69 305.82 389.9 312.46 389.9 312.46 362.11 305.82 362.11 305.82 377.6 305.58 379.08 305.33 380.55 305.09 381.54 304.35 382.52 303.61 383.26 302.87 383.75 301.64 384.24 300.66 384.24 299.43 384.24 298.2 383.75 297.46 383.26 296.72 382.52 296.23 381.54 295.74 380.55 295.49 379.08 295.49 377.36 295.49 362.11 288.6 362.11 288.6 377.85 288.6 379.82 288.85 381.78 289.34 384 290.32 385.96 291.8 387.69 292.54 388.67 293.52 389.16 294.75 389.9 295.98 390.14 297.46 390.39 298.93 390.63"/><polygon class="cls-2" points="403.75 389.9 403.75 374.65 403.75 372.93 403.51 371.7 403.01 370.47 402.52 369.49 401.78 368.75 401.05 368.26 399.82 368.01 398.83 367.76 397.6 368.01 396.37 368.26 395.63 368.75 394.89 369.49 394.16 370.47 393.67 371.7 393.42 372.93 393.42 374.65 393.42 389.9 386.53 389.9 386.53 362.11 393.42 362.11 393.42 364.57 394.89 363.1 396.62 362.35 398.34 361.62 400.31 361.62 402.77 361.62 404.74 362.35 406.46 363.34 407.94 364.82 409.17 366.54 409.91 368.75 410.4 371.21 410.64 374.16 410.64 389.9 403.75 389.9"/><polygon class="cls-1" points="393.42 374.65 393.42 374.65 393.42 372.93 393.67 371.7 394.16 370.47 394.89 369.49 395.63 368.75 396.37 368.26 397.6 368.01 398.83 367.76 399.82 368.01 401.05 368.26 401.78 368.75 402.52 369.49 403.01 370.47 403.51 371.7 403.75 372.93 403.75 374.65 403.75 389.9 410.64 389.9 410.64 374.16 410.4 371.21 409.91 368.75 409.17 366.54 407.94 364.82 406.46 363.34 404.74 362.35 402.77 361.62 400.31 361.62 398.34 361.62 396.62 362.35 394.89 363.1 393.42 364.57 393.42 362.11 386.53 362.11 386.53 389.9 393.42 389.9 393.42 374.65"/><rect class="cls-2" x="318.87" y="362.11" width="6.89" height="27.79"/><rect class="cls-1" x="318.87" y="362.1" width="6.89" height="27.79"/><polygon class="cls-2" points="331.66 389.9 331.66 354 338.55 350.55 338.55 389.9 331.66 389.9"/><polygon class="cls-1" points="331.66 389.9 338.55 389.9 338.55 350.55 331.66 354 331.66 389.9"/><path class="cls-2" d="M535.79,574.6l-1,.25-1,.25-.74.73-.74,1-.49,1.47-.24,1.73-.25,2.21.25,2.46.24,2,.49,1.49.74,1,1,.75.73.48,1,.49h1l1.48-.24,1.48-.73,1-.75.74-1V577.06l-.74-.73-1-1-1.48-.74-1.72-.24ZM532.84,597l-2.22-.75L528.9,595l-1.72-1.72L526,591.08l-.74-2.46-.49-3-.25-3.2.25-3.19.49-2.95,1-2.22,1.23-2.21,1.48-1.48,2-1.22,2-.74,2.46-.25H537l1.72.49,1.48.74,1.23,1.23V560.59l6.89-3.45v39.35h-6.89v-2l-1.48,1-1.47,1L537,597l-1.72.24Z" transform="translate(-181 -206.6)"/><path class="cls-1" d="M536.77,590.83h-1l-1-.49-.73-.48-1-.75-.74-1-.49-1.48-.24-2-.25-2.46.25-2.21.24-1.73.49-1.47.74-1,.74-.73,1-.25,1-.25.74-.24,1.72.24,1.48.74,1,1,.74.73v11.07l-.74,1-1,.75-1.48.73Zm4.68-20.16h0l-1.23-1.23-1.48-.74-1.72-.49H535.3l-2.46.25-2,.73-2,1.23-1.48,1.48-1.23,2.21-1,2.22-.49,2.95-.25,3.19.25,3.2.49,3,.74,2.46,1.23,2.22L528.9,595l1.72,1.22,2.22.75,2.46.24L537,597l1.48-.5,1.47-1,1.48-1v2h6.89V557.14l-6.89,3.45Z" transform="translate(-181 -206.6)"/><path class="cls-2" d="M688.84,574.6l-1.48.5-1,1-1,1.23v10.82l.74.74,1,1,1.48.73.74.24h1l1.23-.24,1-.25,1-.73.74-1,.49-1.23.25-1.47.24-1.73.25-2-.25-2-.24-1.72-.5-1.23-.73-1.23-.74-.74-1-.49-1-.25-.74-.24Zm1,22.39-1.72-.5-1.48-1-1.23-1v2H678.5V561.33l6.89-3.45v12.79l1.23-1,1.72-1,1.48-.49h1.72l2.46.25,2,.73,2,1.23,1.47,1.48,1.24,2.21,1,2.22.49,2.95.25,3.19-.25,3.2-.49,3-.74,2.46-1.23,2.22L697.94,595l-1.72,1.22L694,597l-2.46.24Z" transform="translate(-181 -206.6)"/><path class="cls-1" d="M690.31,574.36h0l.74.24,1,.25,1,.49.74.74.73,1.23.5,1.23.24,1.72.25,2-.25,2-.24,1.73-.25,1.47-.49,1.23-.74,1-1,.73-1,.25-1.23.24h-1l-.74-.24-1.48-.73-1-1-.74-.73V577.31l1-1.23,1-1,1.48-.5Zm1.23-6.15h-1.72l-1.48.49-1.72,1-1.23,1V557.88l-6.89,3.45v35.16h6.89v-2l1.23,1,1.48,1,1.72.5,1.72.24L694,597l2.22-.75,1.72-1.22,1.72-1.72,1.23-2.22.74-2.46.49-3,.25-3.2-.25-3.19-.49-3-1-2.21-1.23-2.21-1.48-1.48-2-1.23-2-.73Z" transform="translate(-181 -206.6)"/><path class="cls-2" d="M606.65,574.6l-1,.5-.74.73-.74,1-.49,1.47-.25,1.73-.24,2.21.24,2.45.25,1.73.49,1.72.74,1,.74.75,1,.48,1,.49h.74l1.72-.24,1.23-.73,1.23-.75.74-1V577.06l-.74-1-1-.74-1.47-.74-1.72-.24h-1Zm-2.46,27.79h.25l2.95-.24,2.22-.49,1.47-.74,1.23-1,.49-1.23.5-1.23v-3l-1.48,1-1.48,1-1.47.5-2,.24-2.21-.24-2.22-1-1.72-1.23L599,593.3l-1.23-2.22-.73-2.46-.74-3v-6.39l.74-3,.73-2.45,1.48-2,1.48-1.72,2-1,2-.73,2.45-.25h1.73l1.72.49,1.48,1,1.23,1v-2h6.89V594l-.25,3.2-.49,2.71-1.23,2.45-.5,1-1,1-.74.74-1,.74-2.46,1-2.71.74-3.2.24Z" transform="translate(-181 -206.6)"/><path class="cls-1" d="M613.3,577.06v11.07l-.74,1-1.23.74-1.23.73-1.72.25h-.74l-1-.49-1-.49-.74-.74-.74-1-.49-1.72-.24-1.73-.25-2.45.25-2.21.24-1.73.49-1.47.74-1,.74-.74,1-.49.74-.24h1l1.72.24,1.47.74,1,.74Zm0-6.39h0l-1.23-1-1.48-1-1.72-.49h-1.73l-2.45.25-2,.73-2,1-1.48,1.72-1.48,2-.73,2.45-.74,2.95v6.4l.74,3,.73,2.46L599,593.3l1.73,1.47,1.72,1.23,2.22,1,2.21.25,2-.25,1.47-.49,1.48-1,1.48-1v3l-.5,1.23-.49,1.23-1.23,1-1.47.74-2.22.49-2.95.24h-.25l2.46,5.41,3.2-.24,2.71-.74,2.46-1,1-.74.74-.74,1-1,.5-1,1.23-2.45.49-2.71.25-3.2V568.7H613.3Z" transform="translate(-181 -206.6)"/><path class="cls-2" d="M646.27,583.7l-.74.25-.74.49-.49.49-.49.74-.25.74v1.72l.25,1,.49.74.49.49.74.49.74.25,1,.25,1,.25,1.72-.25,1.72-.74,1-1,1-1v-3.94l-1.23-.49-1.23-.49-1.48-.25h-2.46ZM645,597l-1.72-.24-1.73-.74-1.47-1-1.48-1.48-1-1.72-.74-2-.25-2.46.25-2.46.74-2,1.23-1.47,1.47-1.23,1.72-1,1.73-.49,2-.49h3.45l1.72.25,1.48.49,1.23.49v-2.7l-.25-1-.49-.74-.49-.49-.74-.49-1-.24-2-.25-2,.25-2,.24-1.72.74-1.48.74-2.7-4.68,2.46-1.22,2.46-1,2.7-.49h5.17l2.22.49,2,1,1.73,1,1.23,1.47,1,1.48.49,2,.25,2.21v18.69h-6.89v-2.22l-1.48,1.24-2,1-1.73.49-1.47.25Z" transform="translate(-181 -206.6)"/><path class="cls-1" d="M643.56,587.39h0v-1l.25-.73.49-.74.49-.49.74-.49.74-.25,1-.25h2.46l1.48.25,1.23.49,1.23.49v3.94l-1,1-1,1-1.72.75-1.72.25-1-.25-1-.25-.74-.25-.74-.49-.49-.49-.49-.74-.25-1Zm-2-11.8h0l1.48-.74,1.72-.74,2-.25,2-.24,2,.24,1,.25.74.49.49.49.49.74.25,1v2.7l-1.23-.49-1.48-.49-1.72-.25h-3.45l-2,.49-1.73.49-1.72,1-1.47,1.23L637.66,583l-.74,2-.25,2.46.25,2.46.74,2,1,1.72,1.48,1.48,1.47,1,1.73.74L645,597l2,.25,1.47-.25,1.72-.49,2-1,1.48-1.24v2.22h6.89V577.8l-.25-2.21-.49-2-1-1.48-1.23-1.47-1.73-1-2-1-2.22-.49h-5.17l-2.7.49-2.46,1-2.46,1.22Z" transform="translate(-181 -206.6)"/><path class="cls-2" d="M717.13,574.11l-1,.25-1,.49-.74.74-.49.73-.49,1-.49,1.23v1.23h10.33l-.25-2.22-.49-1-.49-.74-.74-.74-1-.73-1-.25-1.23-.25Zm-1,22.87-2.71-1-2.21-1.23-1.73-1.47-1.72-2.22-1-2.46-.74-2.7-.25-3.2.25-3.2.74-2.7,1-2.46,1.48-2.22,2-1.72,2-1.23,2.46-.73,2.71-.25,2.46.25,2.21.73,2,1.23,1.72,1.72,1.48,2,1,2.46.49,2.95.24,3.2v2H712.7l.49,2,.5,1.48,1,1,.74.74,1.23.49.74.24,1.72.25,1.72-.25,1.48-.49,1.23-.73,1-1,4.43,4.43-1.23,1-1,1-1.23.74-1.23.49-2.46,1-2.7.25Z" transform="translate(-181 -206.6)"/><path class="cls-1" d="M713,579.77h0v-1.23l.49-1.23.49-1,.49-.73.74-.74,1-.49,1-.25,1-.25,1.23.25,1,.25,1,.73.74.74.49.74.49,1,.25,2.22Zm11.56,8.6h0l-1,1-1.23.73-1.48.49-1.72.25-1.72-.25-.74-.24-1.23-.49-.74-.74-1-1-.5-1.48-.49-2h17.22v-2l-.24-3.2-.49-2.95-1-2.46-1.47-2L725,570.42l-2-1.23-2.21-.73-2.46-.25-2.71.25-2.46.73-2,1.23-2,1.72-1.48,2.22-1,2.45-.74,2.71-.25,3.2.25,3.2.74,2.7,1,2.46,1.72,2.22,1.73,1.47,2.21,1.23,2.71,1,3,.25,2.7-.25,2.46-1,1.23-.49,1.24-.74,1-1,1.23-1Z" transform="translate(-181 -206.6)"/><path class="cls-2" d="M783.32,574.11l-1,.25-.73.49-.74.74-.74.73-.49,1-.25,1.23v1.23h10.34l-.5-2.22-.24-1-.49-.74-.74-.74-1-.73-1-.25-1.23-.25ZM782.58,597l-2.71-1-2.21-1.23-2-1.47-1.47-2.22L773,588.62l-.5-2.7-.24-3.2.24-3.2.5-2.71,1.23-2.45,1.47-2.22,1.72-1.72,2.22-1.23,2.46-.74,2.46-.24,2.7.24,2.22.74,2,1.23,1.72,1.72,1.24,2,1,2.46.74,2.95.24,3.2v2H779.14l.24,2,.74,1.47.74,1,1,.74,1,.49,1,.24,1.48.25,1.72-.25,1.48-.49,1.23-.73,1.22-1,4.19,4.43-1,1-1.23,1-1,.74-1.23.49L788,597l-2.7.25Z" transform="translate(-181 -206.6)"/><path class="cls-1" d="M779.38,579.77h0v-1.23l.25-1.23.49-1,.74-.74.74-.73.73-.49,1-.25,1.23-.25,1.23.25,1,.25,1,.73.74.74.49.74.24,1,.5,2.22Zm11.56,8.6h0l-1.22,1-1.23.73-1.48.49-1.72.25-1.48-.25-1-.24-1-.49-1-.74-.74-1-.74-1.47-.24-2h17.22v-2l-.24-3.2-.74-2.95-1-2.46-1.24-2-1.72-1.72-2-1.23-2.22-.74-2.7-.24-2.46.24-2.46.74-2.22,1.23-1.72,1.72-1.47,2.22L773,576.81l-.5,2.71-.24,3.2.24,3.2.5,2.7,1.23,2.46,1.47,2.22,2,1.47,2.21,1.23,2.71,1,2.71.25L788,597l2.72-1,1.23-.49,1-.74,1.23-1,1-1Z" transform="translate(-181 -206.6)"/><polygon class="cls-2" points="580.42 390.38 578.7 389.65 577.47 388.91 576.48 387.68 575.75 386.45 575.25 384.97 575.01 383.5 574.76 382.02 574.76 368.5 570.58 368.5 570.58 362.1 574.76 362.1 574.76 354.97 581.65 351.53 581.65 362.1 588.05 362.1 588.05 368.5 581.65 368.5 581.65 380.3 581.9 382.02 582.39 383.01 582.88 383.5 583.37 383.75 584.6 383.99 585.84 383.99 586.82 383.75 588.79 382.76 588.05 389.16 586.82 389.89 585.34 390.14 583.87 390.38 582.14 390.63 580.42 390.38"/><polygon class="cls-1" points="581.65 368.5 588.05 368.5 588.05 362.1 581.65 362.1 581.65 351.53 574.76 354.97 574.76 362.1 570.58 362.1 570.58 368.5 574.76 368.5 574.76 382.02 575.01 383.5 575.25 384.97 575.75 386.45 576.48 387.68 577.47 388.91 578.7 389.64 580.42 390.38 582.14 390.63 583.87 390.38 585.34 390.14 586.82 389.89 588.05 389.16 588.79 382.76 586.82 383.75 585.84 383.99 584.61 383.99 583.37 383.75 582.88 383.5 582.39 383.01 581.9 382.02 581.65 380.3 581.65 368.5"/><polygon class="cls-2" points="560.74 390.38 559.02 389.64 557.78 388.91 556.8 387.68 556.06 386.45 555.57 384.97 555.33 383.5 555.08 382.02 555.08 368.5 550.89 368.5 550.89 362.1 555.08 362.1 555.08 354.97 561.97 351.53 561.97 362.1 567.87 362.1 567.87 368.5 561.97 368.5 561.97 380.3 562.22 382.02 562.71 383.01 563.2 383.5 563.69 383.75 564.92 383.99 566.15 383.99 567.14 383.75 569.1 382.76 568.37 389.16 567.14 389.89 565.66 390.14 564.18 390.38 562.46 390.63 560.74 390.38"/><polygon class="cls-1" points="569.1 382.76 569.1 382.76 567.14 383.75 566.15 383.99 564.92 383.99 563.69 383.75 563.2 383.5 562.71 383.01 562.22 382.02 561.97 380.3 561.97 368.5 567.87 368.5 567.87 362.1 561.97 362.1 561.97 351.53 555.08 354.97 555.08 362.1 550.89 362.1 550.89 368.5 555.08 368.5 555.08 382.02 555.33 383.5 555.57 384.97 556.06 386.45 556.8 387.68 557.78 388.91 559.02 389.64 560.74 390.38 562.46 390.63 564.18 390.38 565.66 390.14 567.14 389.89 568.37 389.16 569.1 382.76"/><polygon class="cls-2" points="619.79 389.89 619.79 362.1 626.68 362.1 626.68 364.56 627.91 363.09 629.39 362.35 631.11 361.61 632.83 361.61 634.06 361.61 635.54 361.85 636.77 362.6 638 363.09 636.03 369.97 635.04 369.24 634.06 368.74 632.83 368.5 631.6 368.5 630.37 368.5 629.39 368.74 628.65 369.24 627.91 369.97 627.42 370.96 626.93 371.94 626.68 373.42 626.68 374.89 626.68 389.89 619.79 389.89"/><polygon class="cls-1" points="638 363.09 638 363.09 636.77 362.6 635.54 361.85 634.06 361.61 632.83 361.61 631.11 361.61 629.39 362.35 627.91 363.09 626.68 364.56 626.68 362.1 619.79 362.1 619.79 389.89 626.68 389.89 626.68 374.89 626.68 373.42 626.93 371.94 627.42 370.96 627.91 369.97 628.65 369.24 629.39 368.74 630.37 368.5 631.6 368.5 632.83 368.5 634.06 368.74 635.05 369.24 636.03 369.97 638 363.09"/><rect class="cls-2" x="318.87" y="351.28" width="6.89" height="6.88"/><rect class="cls-1" x="318.87" y="351.28" width="6.89" height="6.88"/><rect class="cls-2" x="373.49" y="362.1" width="6.89" height="27.79"/><rect class="cls-1" x="373.49" y="362.1" width="6.89" height="27.79"/><rect class="cls-2" x="373.49" y="351.28" width="6.89" height="6.88"/><rect class="cls-1" x="373.49" y="351.28" width="6.89" height="6.89"/><path class="cls-2" d="M743.46,623.29l-.74.49-.73.74-.74,1-.49,1.23-.5,2v4.43l.5,2,.49,1.49.74,1.22.73.74,1,.49.74.24h2.7l1.23-.73,1-1,1-1V625.75l-.74-1-1.23-.74-1.23-.74-1.72-.25h-1Zm.49,22.38-2.46-.24-2-.74-2-1.23-1.48-1.72-1.24-2-1-2.71-.5-2.7-.25-3.45.25-3.19.5-2.71,1-2.46,1.24-2,1.48-1.72,2-1.22,2.22-.74,2.46-.25,1.48.25,1.72.49,1.47.74,1.48,1.23V609.27l6.89-3.44v39.35h-6.89V643l-1.48,1.24-1.72,1-1.47.49Z" transform="translate(-181 -206.6)"/><path class="cls-1" d="M745.43,639.27h-1l-.74-.24-1-.49-.73-.74-.74-1.23-.49-1.48-.5-2V628.7l.5-2,.49-1.23.74-1,.73-.74.74-.49,1-.25h1l1.72.25,1.23.74,1.23.74.74,1v10.82l-1,1-1,1-1.23.73Zm4.92-19.91h0l-1.48-1.23-1.47-.74-1.72-.49-1.48-.25-2.46.25-2.21.74-2,1.22-1.48,1.72-1.24,2-1,2.46-.5,2.71-.25,3.19.25,3.45.5,2.7,1,2.71,1.24,2,1.48,1.72,2,1.23,2,.74,2.46.24h1.73l1.47-.49,1.72-1,1.48-1.24v2.22h6.89V605.83l-6.89,3.44Z" transform="translate(-181 -206.6)"/><polygon class="cls-2" points="319.36 438.58 319.36 410.79 326.25 410.79 326.25 413.25 327.48 411.78 328.95 410.79 330.43 410.31 332.4 410.06 333.63 410.31 335.1 410.54 336.34 411.04 337.56 411.78 335.6 418.42 334.61 417.93 333.38 417.44 332.4 417.19 331.17 416.94 329.94 417.19 328.95 417.44 327.97 417.93 327.48 418.66 326.74 419.4 326.49 420.63 326.25 421.86 326.25 423.58 326.25 438.58 319.36 438.58"/><polygon class="cls-1" points="337.56 411.78 337.56 411.78 336.34 411.03 335.1 410.54 333.63 410.3 332.4 410.06 330.43 410.3 328.95 410.79 327.48 411.78 326.25 413.25 326.25 410.79 319.36 410.79 319.36 438.58 326.25 438.58 326.25 423.58 326.25 421.86 326.49 420.63 326.74 419.4 327.48 418.66 327.97 417.93 328.95 417.43 329.94 417.19 331.17 416.94 332.4 417.19 333.38 417.43 334.61 417.93 335.6 418.42 337.56 411.78"/><polygon class="cls-2" points="274.57 438.58 271.62 427.02 269.9 420.88 268.42 427.27 265.47 438.58 259.56 438.58 259.32 438.33 251.96 411.76 251.96 410.79 258.58 410.79 261.29 421.12 262.52 428.01 263.5 424.32 264.24 420.88 267.19 410.79 273.1 410.79 275.8 420.88 277.53 428.01 279 420.88 281.46 410.79 288.35 410.79 280.48 438.58 274.57 438.58"/><polygon class="cls-1" points="279 420.88 279 420.88 277.53 428.01 275.8 420.88 273.1 410.79 267.19 410.79 264.24 420.88 263.5 424.32 262.52 428.01 261.29 421.12 258.58 410.79 251.69 410.79 259.32 438.33 259.56 438.58 265.47 438.58 268.42 427.27 269.9 420.88 271.62 427.02 274.57 438.58 280.48 438.58 288.35 410.79 281.46 410.79 279 420.88"/><path class="cls-2" d="M481.16,623.78l-1,.74-1,.74-.5,1.23-.49,1.47-.24,1.48-.25,1.72.25,1.72.24,1.73.49,1.22.5,1.23,1,1,1,.73,1,.25,1.23.24,1.23-.24,1-.25,1-.73,1-1,.5-1.23.49-1.22.49-1.73v-3.44l-.49-1.48-.49-1.47-.5-1.23-1-.74-1-.74-1-.49h-2.46Zm-.49,21.65-2.46-.74-2-1.23-2-1.72-1.47-2.22-1.23-2.46-.49-2.7-.25-3.2.25-2.95.49-2.71,1.23-2.7,1.47-2,2-1.72,2-1.23,2.46-1,2.71-.25,2.71.25,2.46,1,2,1.23,2,1.72,1.48,2,1.23,2.7.49,2.71.25,2.95-.25,3.2-.49,2.7L494,639.52l-1.48,2.22-2,1.72-2,1.23-2.46.74-2.71.24Z" transform="translate(-181 -206.6)"/><path class="cls-1" d="M483.38,639.27h0l-1.23-.25-1-.24-1-.73-1-1-.5-1.23-.49-1.22-.24-1.73-.25-1.72.25-1.72.24-1.48.49-1.48.5-1.22,1-.74,1-.74,1-.49h2.46l1,.49,1,.74,1,.74.5,1.22.49,1.48.49,1.48v3.44l-.49,1.73-.49,1.22-.5,1.23-1,1-1,.73-1,.24Zm0-22.62h0l-2.71.25-2.46,1-2,1.23-2,1.72-1.47,2-1.23,2.7-.49,2.71-.25,2.95.25,3.2.49,2.7,1.23,2.46,1.47,2.22,2,1.72,2,1.23,2.46.73,2.71.25,2.71-.25,2.46-.73,2-1.23,2-1.72,1.48-2.22,1.23-2.46.49-2.7.25-3.2-.25-2.95-.49-2.71L494,622.8l-1.48-2-2-1.72-2-1.23-2.46-1Z" transform="translate(-181 -206.6)"/><polygon class="cls-2" points="518.91 438.58 518.91 410.79 525.8 410.79 525.8 413.25 527.27 411.78 528.75 410.79 530.23 410.3 531.95 410.06 533.42 410.3 534.9 410.54 536.13 411.03 537.11 411.78 535.39 418.42 534.41 417.93 533.18 417.43 531.95 417.19 530.72 416.94 529.73 417.19 528.75 417.43 527.76 417.93 527.03 418.66 526.54 419.4 526.29 420.63 526.04 421.86 525.8 423.58 525.8 438.58 518.91 438.58"/><polygon class="cls-1" points="537.11 411.78 537.11 411.78 536.13 411.03 534.9 410.54 533.42 410.3 531.95 410.06 530.23 410.3 528.75 410.79 527.27 411.78 525.8 413.25 525.8 410.79 518.91 410.79 518.91 438.58 525.8 438.58 525.8 423.58 526.04 421.86 526.29 420.63 526.54 419.4 527.03 418.66 527.76 417.92 528.75 417.43 529.73 417.19 530.72 416.94 531.95 417.19 533.18 417.43 534.41 417.92 535.39 418.42 537.11 411.78"/><polygon class="cls-2" points="474.37 438.58 471.17 427.02 469.69 420.87 468.22 427.27 465.02 438.58 459.12 438.58 459.12 438.33 451.24 410.79 458.38 410.79 460.84 421.12 462.31 428.01 463.05 424.32 464.04 420.87 466.99 410.79 472.65 410.79 475.6 420.87 477.32 428.01 478.8 420.87 481.26 410.79 488.15 410.79 480.28 438.58 474.37 438.58"/><polygon class="cls-1" points="478.8 420.87 478.8 420.87 477.32 428 475.6 420.87 472.65 410.79 466.99 410.79 464.04 420.87 463.05 424.32 462.31 428 460.84 421.12 458.38 410.79 451.24 410.79 459.12 438.33 459.12 438.58 465.02 438.58 468.22 427.27 469.69 420.87 471.17 427.02 474.37 438.58 480.28 438.58 488.15 410.79 481.26 410.79 478.8 420.87"/><path class="cls-2" d="M680.72,623.78l-1,.74-.74.73-.73,1.23-.49,1.48-.25,1.47v3.45l.25,1.72.49,1.23.73,1.23.74,1,1,.73L682,639l1.23.25,1.23-.25,1-.24,1-.73.73-1,.74-1.23.49-1.23.25-1.72v-3.45l-.25-1.47-.49-1.48-.74-1.23-.73-.73-1-.74-1-.49H682Zm-.25,21.64-2.46-.73-2.22-1.23-1.72-1.72-1.48-2.22-1.22-2.46-.75-2.7-.24-3.2.24-3,.75-2.7,1.22-2.46,1.48-2.21,1.72-1.72,2.22-1.23,2.46-1,2.71-.24,2.46.24,2.46,1,2.21,1.23,1.72,1.72,1.73,2.21,1,2.46.74,2.7.24,3-.24,3.2-.74,2.7-1,2.46L692,641.74l-1.72,1.72-2.21,1.23-2.46.73-2.46.25Z" transform="translate(-181 -206.6)"/><path class="cls-1" d="M683.18,639.27h0L682,639l-1.23-.24-1-.73-.74-1-.73-1.23-.49-1.23-.25-1.72v-3.45l.25-1.47.49-1.48.73-1.23.74-.73,1-.74,1.23-.49h2.46l1,.49,1,.74.73.73.74,1.23.49,1.48.25,1.47v3.45l-.25,1.72-.49,1.23-.74,1.23-.73,1-1,.73-1,.24Zm0-22.62h0l-2.71.24-2.46,1-2.22,1.23-1.72,1.72L672.59,623l-1.22,2.46-.75,2.7-.24,2.95.24,3.21.75,2.7,1.22,2.46,1.48,2.21,1.72,1.73,2.22,1.23,2.46.73,2.71.25,2.46-.25,2.46-.73,2.21-1.23,1.72-1.73,1.73-2.21,1-2.46.74-2.7.24-3.21-.24-2.95-.74-2.7-1-2.46L692,620.83l-1.72-1.72-2.21-1.23-2.46-1Z" transform="translate(-181 -206.6)"/><polygon class="cls-2" points="357 438.58 351.1 425.55 347.65 430.22 347.65 438.58 340.76 438.58 340.76 402.67 347.65 399.23 347.65 421.37 350.11 417.92 355.53 410.79 363.65 410.79 356.26 419.88 364.63 438.58 357 438.58"/><polygon class="cls-1" points="363.65 410.79 355.53 410.79 350.11 417.92 347.65 421.37 347.65 399.23 340.76 402.67 340.76 438.58 347.65 438.58 347.65 430.22 351.1 425.54 357 438.58 364.63 438.58 356.26 419.88 363.65 410.79"/><polygon class="cls-2" points="399.08 438.58 399.08 423.09 399.08 421.61 398.83 420.13 398.34 418.91 397.85 418.17 397.11 417.43 396.37 416.94 395.39 416.44 394.16 416.44 392.93 416.44 391.7 416.94 390.96 417.43 390.22 418.17 389.48 419.15 389.24 420.13 388.99 421.61 388.75 423.09 388.75 438.58 381.86 438.58 381.86 410.78 388.75 410.78 388.75 413 390.22 411.78 391.94 410.78 393.67 410.29 395.88 410.05 398.09 410.29 400.31 411.03 402.03 412.01 403.51 413.25 404.49 415.22 405.23 417.43 405.72 419.88 405.97 422.84 405.97 438.58 399.08 438.58"/><polygon class="cls-1" points="388.75 423.09 388.75 423.09 388.99 421.61 389.24 420.13 389.48 419.15 390.22 418.17 390.96 417.43 391.7 416.94 392.93 416.44 394.16 416.44 395.39 416.44 396.37 416.94 397.11 417.43 397.85 418.17 398.34 418.91 398.83 420.13 399.08 421.61 399.08 423.09 399.08 438.58 405.97 438.58 405.97 422.84 405.72 419.88 405.23 417.43 404.49 415.22 403.51 413.25 402.03 412.01 400.31 411.03 398.09 410.29 395.88 410.05 393.67 410.29 391.94 410.78 390.22 411.78 388.75 413 388.75 410.78 381.86 410.78 381.86 438.58 388.75 438.58 388.75 423.09"/><path class="cls-2" d="M602,623.29l-1,.49-.74.73-.73,1-.5,1.23-.24,2-.25,2,.25,2.46.24,2,.5,1.47.73,1.24,1,.74.74.48,1,.25h2.46l1.23-.73,1.23-1,.74-1V625.74l-.74-1-1-.74-1.48-.73L603.7,623H603Zm-2.46,27.79h.24l3-.25,2.21-.49,1.48-1,1.23-1,.49-1,.49-1.23V643l-1.23,1.23-1.72.74-1.48.74h-1.72l-2.46-.25-2.22-.74-1.72-1.23-1.72-1.72-1.23-2-.74-2.72-.49-2.94-.25-3.2.25-3.2.49-2.7,1-2.46,1.23-2,1.47-1.72,2-1.23,2-.74,2.46-.25,1.72.25,1.73.49,1.47.74,1.23,1.23v-2h6.89v25.08l-.24,3.21-.5,3-1,2.46-.74,1-.74.74-1,1-1,.74-2.46,1-2.71.74-3.19.25Z" transform="translate(-181 -206.6)"/><path class="cls-1" d="M608.62,625.74v10.82l-.74,1-1.23,1-1.23.73H603l-1-.25-.74-.48-1-.74-.73-1.24-.5-1.47-.24-2-.25-2.46.25-2,.24-2,.5-1.23.73-1,.74-.73,1-.5,1-.24h.74l1.72.24,1.48.74,1,.74Zm0-6.39h0l-1.23-1.23-1.47-.74-1.73-.49-1.72-.25-2.46.25-2,.74-2,1.23-1.47,1.72-1.23,2-1,2.46-.49,2.7-.25,3.2.25,3.2.49,2.94.74,2.72,1.23,2,1.72,1.72,1.72,1.23,2.22.74,2.46.25h1.72l1.48-.74,1.72-.74,1.23-1.23v3.2l-.49,1.23-.49,1-1.23,1-1.48,1-2.21.49-3,.25h-.25l2.46,5.41,3.19-.25,2.71-.74,2.46-1,1-.74,1-1,.74-.74.74-1,1-2.46.5-3,.24-3.21V617.38h-6.89Z" transform="translate(-181 -206.6)"/><rect class="cls-2" x="368.81" y="410.78" width="6.89" height="27.79"/><rect class="cls-1" x="368.81" y="410.78" width="6.89" height="27.79"/><rect class="cls-2" x="368.81" y="399.96" width="6.89" height="6.89"/><rect class="cls-1" x="368.81" y="399.96" width="6.89" height="6.89"/><polygon class="cls-2" points="540.56 438.57 540.56 402.67 547.45 399.23 547.45 438.57 540.56 438.57"/><polygon class="cls-1" points="540.56 438.57 547.45 438.57 547.45 399.23 540.56 402.67 540.56 438.57"/><polygon class="cls-3" points="0 246.77 301.94 136.58 301.97 136.58 301.97 193.5 0 246.8 0 246.77"/><polygon class="cls-2" points="2.44 450.23 2.44 293.82 91.27 293.82 111.93 329.72 49.19 329.72 49.19 355.55 106.03 355.55 106.03 388.5 49.19 388.5 49.19 414.32 127.68 414.32 127.68 450.23 2.44 450.23"/><polygon class="cls-1" points="49.19 388.5 106.03 388.5 106.03 355.55 49.19 355.55 49.19 329.72 111.93 329.72 91.27 293.82 2.44 293.82 2.44 450.23 127.68 450.23 127.68 414.32 49.19 414.32 49.19 388.5"/><polygon class="cls-2" points="160.65 450.23 160.65 388.5 106.03 293.82 157.95 293.82 184.27 344.97 210.85 293.82 262.27 293.82 207.4 388.5 207.4 450.23 160.65 450.23"/><polygon class="cls-1" points="210.85 293.82 184.27 344.97 157.95 293.82 106.03 293.82 160.65 388.5 160.65 450.23 207.4 450.23 207.4 388.5 262.27 293.82 210.85 293.82"/></svg>