<svg width="60" height="60" viewBox="0 0 60 60" fill="none" xmlns="http://www.w3.org/2000/svg">
<path d="M30 0C13.4325 0 0 13.6428 0 30.4697C0 44.7474 9.68 56.694 22.73 60C22.59 59.5887 22.5 59.1113 22.5 58.5197V53.3119C21.2825 53.3119 19.2425 53.3119 18.73 53.3119C16.6775 53.3119 14.8525 52.4156 13.9675 50.7499C12.985 48.8989 12.815 46.0677 10.38 44.336C9.6575 43.7596 10.2075 43.102 11.04 43.1909C12.5775 43.6327 13.8525 44.7042 15.0525 46.2937C16.2475 47.8857 16.81 48.2463 19.0425 48.2463C20.125 48.2463 21.745 48.1828 23.27 47.9391C24.09 45.824 25.5075 43.8764 27.24 42.9573C17.25 41.9137 12.4825 36.8658 12.4825 30.0127C12.4825 27.0622 13.72 24.2082 15.8225 21.8036C15.1325 19.4168 14.265 14.5493 16.0875 12.6957C20.5825 12.6957 23.3 15.6564 23.9525 16.4562C26.1925 15.6767 28.6525 15.2349 31.2375 15.2349C33.8275 15.2349 36.2975 15.6767 38.5425 16.4613C39.1875 15.6665 41.9075 12.6957 46.4125 12.6957C48.2425 14.5518 47.365 19.4397 46.6675 21.8214C48.7575 24.2209 49.9875 27.0673 49.9875 30.0127C49.9875 36.8608 45.2275 41.9061 35.2525 42.9547C37.9975 44.4096 40 48.4977 40 51.5777V58.5197C40 58.7838 39.9425 58.9742 39.9125 59.2002C51.6025 55.0385 60 43.7647 60 30.4697C60 13.6428 46.5675 0 30 0Z" fill="white"/>
</svg>
