<svg width="42" height="42" viewBox="0 0 42 42" fill="none" xmlns="http://www.w3.org/2000/svg">
<path d="M35.786 35.7866H29.5629V26.0407C29.5629 23.7168 29.5214 20.7251 26.3263 20.7251C23.0851 20.7251 22.5891 23.2573 22.5891 25.8716V35.7859H16.3662V15.7447H22.3402V18.4835H22.4239C23.0218 17.4613 23.8857 16.6203 24.9237 16.0502C25.9617 15.4801 27.1349 15.2022 28.3183 15.2461C34.6257 15.2461 35.7886 19.3949 35.7886 24.7922L35.786 35.7866ZM9.34434 13.0053C7.34984 13.0057 5.73267 11.389 5.73234 9.39448C5.73202 7.39998 7.34852 5.78281 9.34303 5.78248C11.3375 5.78199 12.9547 7.39866 12.955 9.39317C12.9552 10.351 12.5749 11.2696 11.8978 11.947C11.2206 12.6244 10.3021 13.0051 9.34434 13.0053ZM12.456 35.7867H6.22634V15.7447H12.4558V35.7866L12.456 35.7867ZM38.8884 0.00305679H3.0993C1.40782 -0.0159744 0.0206719 1.33902 0 3.0305V38.9689C0.0200156 40.6612 1.407 42.0175 3.09914 41.9998H38.8884C40.5841 42.0208 41.9765 40.6645 42 38.9689V3.02771C41.9759 1.33295 40.5833 -0.0218807 38.8884 0.000267732" fill="#22153C"/>
</svg>
