<svg width="42" height="32" viewBox="0 0 42 32" fill="none" xmlns="http://www.w3.org/2000/svg">
<path d="M4.2 32C3.045 32 2.0559 31.608 1.2327 30.824C0.409503 30.04 -0.00139643 29.0987 3.56537e-06 28V4C3.56537e-06 2.9 0.411604 1.958 1.2348 1.174C2.058 0.390003 3.0464 -0.00132994 4.2 3.39559e-06H37.8C38.955 3.39559e-06 39.9441 0.392003 40.7673 1.176C41.5905 1.96 42.0014 2.90134 42 4V28C42 29.1 41.5884 30.042 40.7652 30.826C39.942 31.61 38.9536 32.0013 37.8 32H4.2ZM21 18L4.2 8V28H37.8V8L21 18ZM21 14L37.8 4H4.2L21 14ZM4.2 8V4V28V8Z" fill="#22153C"/>
</svg>
