<svg width="434" height="124" viewBox="0 0 434 124" fill="none" xmlns="http://www.w3.org/2000/svg">
<path d="M139.646 94.8114C134.708 94.8114 130.107 94.0191 125.84 92.4343C121.634 90.7886 117.977 88.4724 114.868 85.4857C111.76 82.4991 109.322 78.9943 107.554 74.9714C105.848 70.9486 104.994 66.5295 104.994 61.7143C104.994 56.8991 105.848 52.48 107.554 48.4571C109.322 44.4343 111.76 40.9295 114.868 37.9429C118.038 34.9562 121.726 32.6705 125.931 31.0857C130.137 29.44 134.739 28.6171 139.737 28.6171C145.284 28.6171 150.282 29.5924 154.731 31.5429C159.242 33.4324 163.021 36.2362 166.068 39.9543L156.56 48.7314C154.366 46.2324 151.928 44.3733 149.246 43.1543C146.564 41.8743 143.638 41.2343 140.468 41.2343C137.482 41.2343 134.739 41.7219 132.24 42.6971C129.741 43.6724 127.577 45.0743 125.748 46.9029C123.92 48.7314 122.488 50.8952 121.451 53.3943C120.476 55.8933 119.988 58.6667 119.988 61.7143C119.988 64.7619 120.476 67.5352 121.451 70.0343C122.488 72.5333 123.92 74.6972 125.748 76.5257C127.577 78.3543 129.741 79.7562 132.24 80.7314C134.739 81.7067 137.482 82.1943 140.468 82.1943C143.638 82.1943 146.564 81.5848 149.246 80.3657C151.928 79.0857 154.366 77.1657 156.56 74.6057L166.068 83.3829C163.021 87.101 159.242 89.9352 154.731 91.8857C150.282 93.8362 145.253 94.8114 139.646 94.8114ZM204.968 93.7143V84.1143L204.054 82.0114V64.8229C204.054 61.7752 203.109 59.3981 201.22 57.6914C199.391 55.9848 196.557 55.1314 192.717 55.1314C190.096 55.1314 187.506 55.5581 184.946 56.4114C182.447 57.2038 180.313 58.301 178.546 59.7029L173.426 49.7371C176.108 47.8476 179.338 46.3848 183.117 45.3486C186.896 44.3124 190.736 43.7943 194.637 43.7943C202.134 43.7943 207.955 45.5619 212.1 49.0971C216.245 52.6324 218.317 58.1486 218.317 65.6457V93.7143H204.968ZM189.974 94.4457C186.134 94.4457 182.843 93.8057 180.1 92.5257C177.357 91.1848 175.254 89.3867 173.791 87.1314C172.328 84.8762 171.597 82.3467 171.597 79.5429C171.597 76.6172 172.298 74.0572 173.7 71.8629C175.163 69.6686 177.448 67.9619 180.557 66.7429C183.666 65.4629 187.719 64.8229 192.717 64.8229H205.791V73.1429H194.271C190.919 73.1429 188.603 73.6914 187.323 74.7886C186.104 75.8857 185.494 77.2572 185.494 78.9029C185.494 80.7314 186.195 82.1943 187.597 83.2914C189.06 84.3276 191.041 84.8457 193.54 84.8457C195.917 84.8457 198.05 84.2972 199.94 83.2C201.829 82.0419 203.201 80.3657 204.054 78.1714L206.248 84.7543C205.212 87.9238 203.323 90.3314 200.58 91.9772C197.837 93.6229 194.302 94.4457 189.974 94.4457ZM261.123 43.7943C265.024 43.7943 268.498 44.5867 271.546 46.1714C274.654 47.6952 277.092 50.0724 278.86 53.3029C280.628 56.4724 281.511 60.5562 281.511 65.5543V93.7143H267.248V67.7486C267.248 63.7867 266.365 60.861 264.597 58.9714C262.89 57.0819 260.452 56.1371 257.283 56.1371C255.028 56.1371 252.986 56.6248 251.157 57.6C249.389 58.5143 247.988 59.9467 246.951 61.8971C245.976 63.8476 245.488 66.3467 245.488 69.3943V93.7143H231.226V44.5257H244.848V58.1486L242.288 54.0343C244.056 50.7429 246.586 48.2133 249.877 46.4457C253.168 44.6781 256.917 43.7943 261.123 43.7943ZM318.568 94.4457C313.266 94.4457 308.542 93.3791 304.397 91.2457C300.252 89.0514 296.991 86.0343 294.614 82.1943C292.298 78.3543 291.14 73.9962 291.14 69.12C291.14 64.1829 292.298 59.8248 294.614 56.0457C296.991 52.2057 300.252 49.2191 304.397 47.0857C308.542 44.8914 313.266 43.7943 318.568 43.7943C323.749 43.7943 328.26 44.8914 332.1 47.0857C335.94 49.2191 338.774 52.2971 340.603 56.32L329.54 62.2629C328.26 59.9467 326.645 58.24 324.694 57.1429C322.805 56.0457 320.732 55.4971 318.477 55.4971C316.039 55.4971 313.845 56.0457 311.894 57.1429C309.944 58.24 308.389 59.7943 307.231 61.8057C306.134 63.8171 305.586 66.2552 305.586 69.12C305.586 71.9848 306.134 74.4229 307.231 76.4343C308.389 78.4457 309.944 80 311.894 81.0972C313.845 82.1943 316.039 82.7429 318.477 82.7429C320.732 82.7429 322.805 82.2248 324.694 81.1886C326.645 80.0914 328.26 78.3543 329.54 75.9772L340.603 82.0114C338.774 85.9733 335.94 89.0514 332.1 91.2457C328.26 93.3791 323.749 94.4457 318.568 94.4457ZM348.815 93.7143V44.5257H362.438V58.4229L360.518 54.4C361.981 50.9257 364.327 48.3048 367.558 46.5371C370.788 44.7086 374.72 43.7943 379.352 43.7943V56.96C378.743 56.8991 378.194 56.8686 377.706 56.8686C377.219 56.8076 376.701 56.7771 376.152 56.7771C372.251 56.7771 369.082 57.9048 366.643 60.16C364.266 62.3543 363.078 65.7981 363.078 70.4914V93.7143H348.815ZM387.922 93.7143V44.5257H402.185V93.7143H387.922ZM395.053 37.6686C392.433 37.6686 390.299 36.9067 388.653 35.3829C387.008 33.8591 386.185 31.9695 386.185 29.7143C386.185 27.4591 387.008 25.5695 388.653 24.0457C390.299 22.5219 392.433 21.76 395.053 21.76C397.674 21.76 399.808 22.4914 401.453 23.9543C403.099 25.3562 403.922 27.1848 403.922 29.44C403.922 31.8171 403.099 33.7981 401.453 35.3829C399.869 36.9067 397.735 37.6686 395.053 37.6686Z" fill="#181818"/>
<path d="M420.816 94.4457C418.378 94.4457 416.275 93.6229 414.508 91.9772C412.801 90.2705 411.948 88.1067 411.948 85.4857C411.948 82.8648 412.801 80.7619 414.508 79.1772C416.275 77.5314 418.378 76.7086 420.816 76.7086C423.315 76.7086 425.418 77.5314 427.125 79.1772C428.832 80.7619 429.685 82.8648 429.685 85.4857C429.685 88.1067 428.832 90.2705 427.125 91.9772C425.418 93.6229 423.315 94.4457 420.816 94.4457Z" fill="#46F2B6"/>
<path d="M0 46.6555C0 45.6642 0.459386 44.7289 1.24388 44.123L53.2119 3.98262C55.3154 2.35788 58.368 3.85722 58.368 6.51512V17.3445C58.368 18.3358 57.9086 19.2711 57.1241 19.877L5.15613 60.0174C3.05265 61.6421 0 60.1428 0 57.4849V46.6555Z" fill="#181818"/>
<path d="M23.04 54.8475C23.04 53.8562 23.4994 52.9209 24.2839 52.315L76.2519 12.1746C78.3554 10.5499 81.408 12.0492 81.408 14.7071V25.5365C81.408 26.5278 80.9487 27.4631 80.1642 28.069L28.1962 68.2094C26.0927 69.8341 23.04 68.3348 23.04 65.6769V54.8475Z" fill="#181818"/>
<path d="M0 98.3675C0 97.3762 0.459386 96.4409 1.24388 95.835L53.2119 55.6946C55.3154 54.0699 58.368 55.5692 58.368 58.2271V69.0565C58.368 70.0478 57.9086 70.9831 57.1241 71.589L5.15613 111.729C3.05265 113.354 0 111.855 0 109.197V98.3675Z" fill="#181818"/>
<path d="M23.04 106.559C23.04 105.568 23.4994 104.633 24.2839 104.027L76.2519 63.8866C78.3554 62.2619 81.408 63.7612 81.408 66.4191V77.2485C81.408 78.2398 80.9487 79.1751 80.1642 79.781L28.1962 119.921C26.0927 121.546 23.04 120.047 23.04 117.389V106.559Z" fill="#181818"/>
</svg>
