<svg width="639" height="451" viewBox="0 0 639 451" fill="none" xmlns="http://www.w3.org/2000/svg">
<g clip-path="url(#clip0_330_20)">
<path d="M261.29 366.53H270.39L271.62 366.29L272.62 366.04L273.62 365.55L274.11 365.06L274.6 364.57L274.85 363.83L275.1 362.35L274.85 361.35L274.6 360.61L274.36 359.87L273.87 359.38L273.13 358.89L272.13 358.64L269.9 358.4H261.29V366.53ZM261.29 383.53H271.62L272.85 383.28L273.85 382.78L274.58 382.04L275.32 381.31L275.81 380.31L276.06 379.31L276.31 378.08L276.06 376.85L275.81 375.63L275.32 374.63L274.83 373.89L273.83 373.4L272.83 372.91L271.83 372.66H261.29V383.53ZM254.4 389.91V351.78H270.64L273.1 352.02L275.56 352.52L277.56 353.26L279.28 354.48L280.76 355.96L281.76 357.68L282.25 359.68L282.5 361.89L282.25 362.89L282.01 364.12L281.76 365.12L281.27 366.35L280.53 367.08L279.79 368.08L279.05 368.82L278.05 369.31L279.77 370.31L280.77 371.05L281.77 372.05L282.51 373.05L283.25 374.52L283.49 376L283.74 378L283.49 380.71L282.75 383.17L281.75 385.17L280.27 386.89L278.27 388.36L276.05 389.36L273.35 389.85L270.35 390.09L254.4 389.91Z" fill="#222222"/>
<path d="M297.46 390.39L295.98 390.14L294.75 389.9L293.52 389.16L292.54 388.67L291.8 387.69L290.32 385.96L289.34 384L288.85 381.78L288.6 379.82V377.85V362.11H295.49V377.36V379.08L295.74 380.55L296.23 381.54L296.72 382.52L297.46 383.26L298.2 383.75L299.43 384.25H300.66H301.64L302.87 383.75L303.61 383.26L304.35 382.52L305.09 381.54L305.33 380.55L305.58 379.08L305.82 377.6V362.11H312.46V389.9H305.82V387.69L304.35 388.91L302.87 389.9L300.9 390.39L298.93 390.64L297.46 390.39Z" fill="#222222"/>
<path d="M403.75 389.9V374.65V372.93L403.51 371.7L403.01 370.47L402.52 369.49L401.78 368.75L401.05 368.26L399.82 368.01L398.83 367.76L397.6 368.01L396.37 368.26L395.63 368.75L394.89 369.49L394.16 370.47L393.67 371.7L393.42 372.93V374.65V389.9H386.53V362.11H393.42V364.57L394.89 363.1L396.62 362.35L398.34 361.62H400.31H402.77L404.74 362.35L406.46 363.34L407.94 364.82L409.17 366.54L409.91 368.75L410.4 371.21L410.64 374.16V389.9H403.75Z" fill="#222222"/>
<path d="M325.76 362.11H318.87V389.9H325.76V362.11Z" fill="#222222"/>
<path d="M331.66 389.9V354L338.55 350.55V389.9H331.66Z" fill="#222222"/>
<path d="M354.79 368L353.79 368.25L352.79 368.5L352.05 369.23L351.31 370.23L350.82 371.7L350.58 373.43L350.33 375.64L350.58 378.1L350.82 380.1L351.31 381.59L352.05 382.59L353.05 383.34L353.78 383.82L354.78 384.31H355.78L357.26 384.07L358.74 383.34L359.74 382.59L360.48 381.59V370.46L359.74 369.73L358.74 368.73L357.26 367.99L355.54 367.75L354.79 368ZM351.84 390.4L349.62 389.65L347.9 388.4L346.18 386.68L345 384.48L344.26 382.02L343.77 379.02L343.52 375.82L343.77 372.63L344.26 369.68L345.26 367.46L346.49 365.25L347.97 363.77L349.97 362.55L351.97 361.81L354.43 361.56H356L357.72 362.05L359.2 362.79L360.43 364.02V353.99L367.32 350.54V389.89H360.43V387.89L358.95 388.89L357.48 389.89L356 390.4L354.28 390.64L351.84 390.4Z" fill="#222222"/>
<path d="M507.84 368L506.36 368.5L505.36 369.5L504.36 370.73V381.55L505.1 382.29L506.1 383.29L507.58 384.02L508.32 384.26H509.32L510.55 384.02L511.55 383.77L512.55 383.04L513.29 382.04L513.78 380.81L514.03 379.34L514.27 377.61L514.52 375.61L514.27 373.61L514.03 371.89L513.53 370.66L512.8 369.43L512.06 368.69L511.06 368.2L510.06 367.95L509.32 367.71L507.84 368ZM508.84 390.39L507.12 389.89L505.64 388.89L504.41 387.89V389.89H497.5V354.73L504.39 351.28V364.07L505.62 363.07L507.34 362.07L508.82 361.58H510.54L513 361.83L515 362.56L517 363.79L518.47 365.27L519.71 367.48L520.71 369.7L521.2 372.65L521.45 375.84L521.2 379.04L520.71 382.04L519.97 384.5L518.74 386.72L516.94 388.4L515.22 389.62L513 390.4L510.54 390.64L508.84 390.39Z" fill="#222222"/>
<path d="M425.65 368L424.65 368.5L423.91 369.23L423.17 370.23L422.68 371.7L422.43 373.43L422.19 375.64L422.43 378.09L422.68 379.82L423.17 381.54L423.91 382.54L424.65 383.29L425.65 383.77L426.65 384.26H427.39L429.11 384.02L430.34 383.29L431.57 382.54L432.31 381.54V370.46L431.57 369.46L430.57 368.72L429.1 367.98L427.38 367.74H426.38L425.65 368ZM423.19 395.79H423.44L426.39 395.55L428.61 395.06L430.08 394.32L431.31 393.32L431.8 392.09L432.3 390.86V387.86L430.82 388.86L429.34 389.86L427.87 390.36L425.87 390.6L423.66 390.36L421.44 389.36L419.72 388.13L418 386.7L416.77 384.48L416.04 382.02L415.3 379.02V372.63L416.04 369.63L416.77 367.18L418.25 365.18L419.73 363.46L421.73 362.46L423.73 361.73L426.18 361.48H427.91L429.63 361.97L431.11 362.97L432.34 363.97V361.97H439.23V387.4L438.98 390.6L438.49 393.31L437.26 395.76L436.76 396.76L435.76 397.76L435.02 398.5L434.02 399.24L431.56 400.24L428.85 400.98L425.65 401.22L423.19 395.79Z" fill="#222222"/>
<path d="M465.27 377.1L464.53 377.35L463.79 377.84L463.3 378.33L462.81 379.07L462.56 379.81V381.53L462.81 382.53L463.3 383.27L463.79 383.76L464.53 384.25L465.27 384.5L466.27 384.75L467.27 385L468.99 384.75L470.71 384.01L471.71 383.01L472.71 382.01V378.07L471.48 377.58L470.25 377.09L468.77 376.84H466.31L465.27 377.1ZM464 390.4L462.28 390.16L460.55 389.42L459.08 388.42L457.6 386.94L456.6 385.22L455.86 383.22L455.61 380.76L455.86 378.3L456.6 376.3L457.83 374.83L459.3 373.6L461.02 372.6L462.75 372.11L464.75 371.62H468.2L469.92 371.87L471.4 372.36L472.63 372.85V370.15L472.38 369.15L471.89 368.41L471.4 367.92L470.66 367.43L469.66 367.19L467.66 366.94L465.66 367.19L463.66 367.43L461.94 368.17L460.46 368.91L457.76 364.23L460.22 363.01L462.68 362.01L465.38 361.52H470.55L472.77 362.01L474.77 363.01L476.5 364.01L477.73 365.48L478.73 366.96L479.22 368.96L479.47 371.17V389.86H472.58V387.64L471.1 388.88L469.1 389.88L467.37 390.37L465.9 390.62L464 390.4Z" fill="#222222"/>
<path d="M536.13 367.51L535.13 367.76L534.13 368.25L533.39 368.99L532.9 369.72L532.41 370.72L531.92 371.95V373.18H542.25L542 370.96L541.51 369.96L541.02 369.22L540.28 368.48L539.28 367.75L538.28 367.5L537.05 367.25L536.13 367.51ZM535.13 390.38L532.42 389.38L530.21 388.15L528.48 386.68L526.76 384.46L525.76 382L525.02 379.3L524.77 376.1L525.02 372.9L525.76 370.2L526.76 367.74L528.24 365.52L530.24 363.8L532.24 362.57L534.7 361.84L537.41 361.59L539.87 361.84L542.08 362.57L544.08 363.8L545.8 365.52L547.28 367.52L548.28 369.98L548.77 372.93L549.01 376.13V378.13H531.7L532.19 380.13L532.69 381.61L533.69 382.61L534.43 383.35L535.66 383.84L536.4 384.08L538.12 384.33L539.84 384.08L541.32 383.59L542.55 382.86L543.55 381.86L547.98 386.29L546.75 387.29L545.75 388.29L544.52 389.03L543.29 389.52L540.83 390.52L538.13 390.77L535.13 390.38Z" fill="#222222"/>
<path d="M602.32 367.51L601.32 367.76L600.59 368.25L599.85 368.99L599.11 369.72L598.62 370.72L598.37 371.95V373.18H608.71L608.21 370.96L607.97 369.96L607.48 369.22L606.74 368.48L605.74 367.75L604.74 367.5L603.51 367.25L602.32 367.51ZM601.58 390.4L598.87 389.4L596.66 388.17L594.66 386.7L593.19 384.48L592 382.02L591.5 379.32L591.26 376.12L591.5 372.92L592 370.21L593.23 367.76L594.7 365.54L596.42 363.82L598.64 362.59L601.1 361.85L603.56 361.61L606.26 361.85L608.48 362.59L610.48 363.82L612.2 365.54L613.44 367.54L614.44 370L615.18 372.95L615.42 376.15V378.15H598.14L598.38 380.15L599.12 381.62L599.86 382.62L600.86 383.36L601.86 383.85L602.86 384.09L604.34 384.34L606.06 384.09L607.54 383.6L608.77 382.87L609.99 381.87L614.18 386.3L613.18 387.3L611.95 388.3L610.95 389.04L609.72 389.53L607 390.4L604.3 390.65L601.58 390.4Z" fill="#222222"/>
<path d="M580.42 390.38L578.7 389.65L577.47 388.91L576.48 387.68L575.75 386.45L575.25 384.97L575.01 383.5L574.76 382.02V368.5H570.58V362.1H574.76V354.97L581.65 351.53V362.1H588.05V368.5H581.65V380.3L581.9 382.02L582.39 383.01L582.88 383.5L583.37 383.75L584.6 383.99H585.84L586.82 383.75L588.79 382.76L588.05 389.16L586.82 389.89L585.34 390.14L583.87 390.38L582.14 390.63L580.42 390.38Z" fill="#222222"/>
<path d="M560.74 390.38L559.02 389.64L557.78 388.91L556.8 387.68L556.06 386.45L555.57 384.97L555.33 383.5L555.08 382.02V368.5H550.89V362.1H555.08V354.97L561.97 351.53V362.1H567.87V368.5H561.97V380.3L562.22 382.02L562.71 383.01L563.2 383.5L563.69 383.75L564.92 383.99H566.15L567.14 383.75L569.1 382.76L568.37 389.16L567.14 389.89L565.66 390.14L564.18 390.38L562.46 390.63L560.74 390.38Z" fill="#222222"/>
<path d="M619.79 389.89V362.1H626.68V364.56L627.91 363.09L629.39 362.35L631.11 361.61H632.83H634.06L635.54 361.85L636.77 362.6L638 363.09L636.03 369.97L635.04 369.24L634.06 368.74L632.83 368.5H631.6H630.37L629.39 368.74L628.65 369.24L627.91 369.97L627.42 370.96L626.93 371.94L626.68 373.42V374.89V389.89H619.79Z" fill="#222222"/>
<path d="M325.76 351.28H318.87V358.16H325.76V351.28Z" fill="#222222"/>
<path d="M380.38 362.1H373.49V389.89H380.38V362.1Z" fill="#222222"/>
<path d="M380.38 351.28H373.49V358.16H380.38V351.28Z" fill="#222222"/>
<path d="M562.46 416.69L561.72 417.18L560.99 417.92L560.25 418.92L559.76 420.15L559.26 422.15V426.58L559.76 428.58L560.25 430.07L560.99 431.29L561.72 432.03L562.72 432.52L563.46 432.76H566.16L567.39 432.03L568.39 431.03L569.39 430.03V419.15L568.65 418.15L567.42 417.41L566.19 416.67L564.47 416.42H563.47L562.46 416.69ZM562.95 439.07L560.49 438.83L558.49 438.09L556.49 436.86L555.01 435.14L553.77 433.14L552.77 430.43L552.27 427.73L552.02 424.28L552.27 421.09L552.77 418.38L553.77 415.92L555.01 413.92L556.49 412.2L558.49 410.98L560.71 410.24L563.17 409.99L564.65 410.24L566.37 410.73L567.84 411.47L569.32 412.7V402.67L576.21 399.23V438.58H569.32V436.4L567.84 437.64L566.12 438.64L564.65 439.13L562.95 439.07Z" fill="#222222"/>
<path d="M319.36 438.58V410.79H326.25V413.25L327.48 411.78L328.95 410.79L330.43 410.31L332.4 410.06L333.63 410.31L335.1 410.54L336.34 411.04L337.56 411.78L335.6 418.42L334.61 417.93L333.38 417.44L332.4 417.19L331.17 416.94L329.94 417.19L328.95 417.44L327.97 417.93L327.48 418.66L326.74 419.4L326.49 420.63L326.25 421.86V423.58V438.58H319.36Z" fill="#222222"/>
<path d="M274.57 438.58L271.62 427.02L269.9 420.88L268.42 427.27L265.47 438.58H259.56L259.32 438.33L251.96 411.76V410.79H258.58L261.29 421.12L262.52 428.01L263.5 424.32L264.24 420.88L267.19 410.79H273.1L275.8 420.88L277.53 428.01L279 420.88L281.46 410.79H288.35L280.48 438.58H274.57Z" fill="#222222"/>
<path d="M300.16 417.18L299.16 417.92L298.16 418.66L297.66 419.89L297.17 421.36L296.93 422.84L296.68 424.56L296.93 426.28L297.17 428.01L297.66 429.23L298.16 430.46L299.16 431.46L300.16 432.19L301.16 432.44L302.39 432.68L303.62 432.44L304.62 432.19L305.62 431.46L306.62 430.46L307.12 429.23L307.61 428.01L308.1 426.28V422.84L307.61 421.36L307.12 419.89L306.62 418.66L305.62 417.92L304.62 417.18L303.62 416.69H301.16L300.16 417.18ZM299.67 438.83L297.21 438.09L295.21 436.86L293.21 435.14L291.74 432.92L290.51 430.46L290.02 427.76L289.77 424.56L290.02 421.61L290.51 418.9L291.74 416.2L293.21 414.2L295.21 412.48L297.21 411.25L299.67 410.25L302.38 410L305.09 410.25L307.55 411.25L309.55 412.48L311.55 414.2L313.03 416.2L314.26 418.9L314.75 421.61L315 424.56L314.75 427.76L314.26 430.46L313 432.92L311.52 435.14L309.52 436.86L307.52 438.09L305.06 438.83L302.35 439.07L299.67 438.83Z" fill="#222222"/>
<path d="M518.91 438.58V410.79H525.8V413.25L527.27 411.78L528.75 410.79L530.23 410.3L531.95 410.06L533.42 410.3L534.9 410.54L536.13 411.03L537.11 411.78L535.39 418.42L534.41 417.93L533.18 417.43L531.95 417.19L530.72 416.94L529.73 417.19L528.75 417.43L527.76 417.93L527.03 418.66L526.54 419.4L526.29 420.63L526.04 421.86L525.8 423.58V438.58H518.91Z" fill="#222222"/>
<path d="M474.37 438.58L471.17 427.02L469.69 420.87L468.22 427.27L465.02 438.58H459.12V438.33L451.24 410.79H458.38L460.84 421.12L462.31 428.01L463.05 424.32L464.04 420.87L466.99 410.79H472.65L475.6 420.87L477.32 428.01L478.8 420.87L481.26 410.79H488.15L480.28 438.58H474.37Z" fill="#222222"/>
<path d="M499.72 417.18L498.72 417.92L497.98 418.65L497.25 419.88L496.76 421.36L496.51 422.83V426.28L496.76 428L497.25 429.23L497.98 430.46L498.72 431.46L499.72 432.19L501 432.4L502.23 432.65L503.46 432.4L504.46 432.16L505.46 431.43L506.19 430.43L506.93 429.2L507.42 427.97L507.67 426.25V422.8L507.42 421.33L506.93 419.85L506.19 418.62L505.46 417.89L504.46 417.15L503.46 416.66H501L499.72 417.18ZM499.47 438.82L497.01 438.09L494.79 436.86L493.07 435.14L491.59 432.92L490.37 430.46L489.62 427.76L489.38 424.56L489.62 421.56L490.37 418.86L491.59 416.4L493.07 414.19L494.79 412.47L497.01 411.24L499.47 410.24L502.18 410L504.64 410.24L507.1 411.24L509.31 412.47L511.03 414.19L512.76 416.4L513.76 418.86L514.5 421.56L514.74 424.56L514.5 427.76L513.76 430.46L512.76 432.92L511 435.14L509.28 436.86L507.07 438.09L504.61 438.82L502.15 439.07L499.47 438.82Z" fill="#222222"/>
<path d="M357 438.58L351.1 425.55L347.65 430.22V438.58H340.76V402.67L347.65 399.23V421.37L350.11 417.92L355.53 410.79H363.65L356.26 419.88L364.63 438.58H357Z" fill="#222222"/>
<path d="M399.08 438.58V423.09V421.61L398.83 420.13L398.34 418.91L397.85 418.17L397.11 417.43L396.37 416.94L395.39 416.44H394.16H392.93L391.7 416.94L390.96 417.43L390.22 418.17L389.48 419.15L389.24 420.13L388.99 421.61L388.75 423.09V438.58H381.86V410.78H388.75V413L390.22 411.78L391.94 410.78L393.67 410.29L395.88 410.05L398.09 410.29L400.31 411.03L402.03 412.01L403.51 413.25L404.49 415.22L405.23 417.43L405.72 419.88L405.97 422.84V438.58H399.08Z" fill="#222222"/>
<path d="M421 416.69L420 417.18L419.26 417.91L418.53 418.91L418.03 420.14L417.79 422.14L417.54 424.14L417.79 426.6L418.03 428.6L418.53 430.07L419.26 431.31L420.26 432.05L421 432.53L422 432.78H424.46L425.69 432.05L426.92 431.05L427.66 430.05V419.14L426.92 418.14L425.92 417.4L424.44 416.67L422.7 416.4H422L421 416.69ZM418.54 444.48H418.78L421.78 444.23L423.99 443.74L425.47 442.74L426.7 441.74L427.19 440.74L427.68 439.51V436.4L426.45 437.63L424.73 438.37L423.25 439.11H421.53L419.07 438.86L416.85 438.12L415.13 436.89L413.41 435.17L412.18 433.17L411.44 430.45L410.95 427.51L410.7 424.31L410.95 421.11L411.44 418.41L412.44 415.95L413.67 413.95L415.14 412.23L417.14 411L419.14 410.26L421.6 410.01L423.32 410.26L425.05 410.75L426.52 411.49L427.75 412.72V410.72H434.64V435.8L434.4 439.01L433.9 442.01L432.9 444.47L432.16 445.47L431.42 446.21L430.42 447.21L429.42 447.95L426.96 448.95L424.25 449.69L421.06 449.94L418.54 444.48Z" fill="#222222"/>
<path d="M375.7 410.78H368.81V438.57H375.7V410.78Z" fill="#222222"/>
<path d="M375.7 399.96H368.81V406.85H375.7V399.96Z" fill="#222222"/>
<path d="M540.56 438.57V402.67L547.45 399.23V438.57H540.56Z" fill="#222222"/>
<path d="M0 246.77L301.94 136.58H301.97V193.5L0 246.8V246.77Z" fill="#FFE504"/>
<path d="M2.43994 450.23V293.82H91.2699L111.93 329.72H49.1899V355.55H106.03V388.5H49.1899V414.32H127.68V450.23H2.43994Z" fill="#222222"/>
<path d="M160.65 450.23V388.5L106.03 293.82H157.95L184.27 344.97L210.85 293.82H262.27L207.4 388.5V450.23H160.65Z" fill="#222222"/>
</g>
<defs>
<clipPath id="clip0_330_20">
<rect width="638.03" height="450.26" fill="white"/>
</clipPath>
</defs>
</svg>
