<svg width="983" height="238" viewBox="0 0 983 238" fill="none" xmlns="http://www.w3.org/2000/svg">
<path d="M284.648 219.959C279.837 219.959 276.202 218.92 273.742 216.843C271.309 214.766 269.929 211.513 269.601 207.085C269.546 206.238 269.751 205.582 270.216 205.117C270.681 204.652 271.323 204.42 272.143 204.42C272.963 204.42 273.578 204.639 273.988 205.076C274.425 205.513 274.699 206.142 274.808 206.962C274.999 209.887 275.833 211.923 277.309 213.071C278.785 214.219 281.231 214.793 284.648 214.793H296.456C300.228 214.793 302.825 214.082 304.246 212.661C305.695 211.212 306.419 208.629 306.419 204.912C306.419 201.14 305.681 198.543 304.205 197.122C302.756 195.673 300.173 194.949 296.456 194.949H285.591C280.644 194.949 277.008 193.787 274.685 191.464C272.362 189.113 271.2 185.478 271.2 180.558C271.2 175.638 272.348 172.03 274.644 169.734C276.967 167.411 280.589 166.249 285.509 166.249H296.415C300.925 166.249 304.328 167.233 306.624 169.201C308.947 171.142 310.273 174.189 310.601 178.344C310.683 179.164 310.492 179.82 310.027 180.312C309.562 180.777 308.906 181.009 308.059 181.009C307.266 181.009 306.651 180.79 306.214 180.353C305.777 179.888 305.517 179.26 305.435 178.467C305.216 175.816 304.424 173.984 303.057 172.973C301.69 171.934 299.476 171.415 296.415 171.415H285.509C282.01 171.415 279.605 172.085 278.293 173.424C277.008 174.736 276.366 177.114 276.366 180.558C276.366 184.002 277.022 186.407 278.334 187.774C279.673 189.113 282.092 189.783 285.591 189.783H296.456C301.622 189.783 305.435 191.013 307.895 193.473C310.355 195.906 311.585 199.719 311.585 204.912C311.585 210.078 310.355 213.877 307.895 216.31C305.462 218.743 301.649 219.959 296.456 219.959H284.648ZM342.241 220C336.2 220 331.772 218.592 328.957 215.777C326.141 212.962 324.734 208.534 324.734 202.493V183.715C324.734 177.62 326.141 173.178 328.957 170.39C331.799 167.575 336.214 166.194 342.2 166.249H352.081C358.149 166.249 362.577 167.657 365.365 170.472C368.18 173.26 369.588 177.688 369.588 183.756V202.493C369.588 208.534 368.18 212.962 365.365 215.777C362.577 218.592 358.149 220 352.081 220H342.241ZM342.241 214.834H352.081C355.169 214.834 357.602 214.451 359.379 213.686C361.183 212.893 362.467 211.595 363.233 209.791C364.025 207.987 364.422 205.554 364.422 202.493V183.756C364.422 180.695 364.025 178.262 363.233 176.458C362.467 174.654 361.183 173.369 359.379 172.604C357.602 171.811 355.169 171.415 352.081 171.415H342.2C339.138 171.388 336.706 171.757 334.902 172.522C333.125 173.287 331.84 174.572 331.048 176.376C330.282 178.18 329.9 180.626 329.9 183.715V202.493C329.9 205.554 330.282 207.987 331.048 209.791C331.84 211.595 333.139 212.893 334.943 213.686C336.747 214.451 339.179 214.834 342.241 214.834ZM386.687 220C384.965 220 384.104 219.139 384.104 217.417V168.832C384.104 167.11 384.965 166.249 386.687 166.249C388.409 166.249 389.27 167.11 389.27 168.832V214.834H413.46C415.182 214.834 416.043 215.695 416.043 217.417C416.043 219.139 415.182 220 413.46 220H386.687ZM443.322 220C437.282 220 432.854 218.592 430.038 215.777C427.223 212.962 425.815 208.534 425.815 202.493V168.832C425.815 168.012 426.034 167.383 426.471 166.946C426.936 166.481 427.578 166.249 428.398 166.249C429.218 166.249 429.847 166.481 430.284 166.946C430.749 167.383 430.981 168.012 430.981 168.832V202.493C430.981 205.554 431.364 207.987 432.129 209.791C432.922 211.595 434.22 212.893 436.024 213.686C437.828 214.451 440.261 214.834 443.322 214.834H453.162C456.251 214.834 458.684 214.451 460.46 213.686C462.264 212.893 463.549 211.595 464.314 209.791C465.107 207.987 465.503 205.554 465.503 202.493V168.832C465.503 168.012 465.722 167.383 466.159 166.946C466.624 166.481 467.266 166.249 468.086 166.249C468.906 166.249 469.535 166.481 469.972 166.946C470.437 167.383 470.669 168.012 470.669 168.832V202.493C470.669 208.534 469.262 212.962 466.446 215.777C463.658 218.592 459.23 220 453.162 220H443.322ZM502.153 220.041C501.333 220.041 500.691 219.822 500.226 219.385C499.789 218.92 499.57 218.278 499.57 217.458V171.415H482.637C481.817 171.415 481.175 171.196 480.71 170.759C480.273 170.294 480.054 169.652 480.054 168.832C480.054 168.012 480.273 167.383 480.71 166.946C481.175 166.481 481.817 166.249 482.637 166.249H521.669C522.489 166.249 523.118 166.481 523.555 166.946C524.02 167.383 524.252 168.012 524.252 168.832C524.252 169.652 524.02 170.294 523.555 170.759C523.118 171.196 522.489 171.415 521.669 171.415H504.736V217.458C504.736 218.251 504.504 218.879 504.039 219.344C503.602 219.809 502.973 220.041 502.153 220.041ZM536.594 220C535.774 220 535.131 219.781 534.667 219.344C534.229 218.879 534.011 218.237 534.011 217.417V168.832C534.011 167.985 534.229 167.342 534.667 166.905C535.131 166.468 535.774 166.249 536.594 166.249C537.441 166.249 538.083 166.468 538.521 166.905C538.958 167.342 539.177 167.985 539.177 168.832V217.417C539.177 218.237 538.958 218.879 538.521 219.344C538.083 219.781 537.441 220 536.594 220ZM571.184 220C565.144 220 560.716 218.592 557.9 215.777C555.085 212.962 553.677 208.534 553.677 202.493V183.715C553.677 177.62 555.085 173.178 557.9 170.39C560.743 167.575 565.157 166.194 571.143 166.249H581.024C587.092 166.249 591.52 167.657 594.308 170.472C597.124 173.26 598.531 177.688 598.531 183.756V202.493C598.531 208.534 597.124 212.962 594.308 215.777C591.52 218.592 587.092 220 581.024 220H571.184ZM571.184 214.834H581.024C584.113 214.834 586.546 214.451 588.322 213.686C590.126 212.893 591.411 211.595 592.176 209.791C592.969 207.987 593.365 205.554 593.365 202.493V183.756C593.365 180.695 592.969 178.262 592.176 176.458C591.411 174.654 590.126 173.369 588.322 172.604C586.546 171.811 584.113 171.415 581.024 171.415H571.143C568.082 171.388 565.649 171.757 563.845 172.522C562.069 173.287 560.784 174.572 559.991 176.376C559.226 178.18 558.843 180.626 558.843 183.715V202.493C558.843 205.554 559.226 207.987 559.991 209.791C560.784 211.595 562.082 212.893 563.886 213.686C565.69 214.451 568.123 214.834 571.184 214.834ZM615.631 220C613.909 220 613.048 219.139 613.048 217.417V168.832C613.048 167.11 613.909 166.249 615.631 166.249C616.533 166.249 617.407 166.755 618.255 167.766L652.408 211.677H651.178V168.832C651.178 167.11 652.039 166.249 653.761 166.249C655.483 166.249 656.344 167.11 656.344 168.832V217.417C656.344 219.139 655.483 220 653.761 220C652.831 220 651.957 219.494 651.137 218.483L616.984 174.572H618.214V217.417C618.214 219.139 617.353 220 615.631 220ZM685.919 219.959C681.109 219.959 677.473 218.92 675.013 216.843C672.581 214.766 671.2 211.513 670.872 207.085C670.818 206.238 671.023 205.582 671.487 205.117C671.952 204.652 672.594 204.42 673.414 204.42C674.234 204.42 674.849 204.639 675.259 205.076C675.697 205.513 675.97 206.142 676.079 206.962C676.271 209.887 677.104 211.923 678.58 213.071C680.056 214.219 682.503 214.793 685.919 214.793H697.727C701.499 214.793 704.096 214.082 705.517 212.661C706.966 211.212 707.69 208.629 707.69 204.912C707.69 201.14 706.952 198.543 705.476 197.122C704.028 195.673 701.445 194.949 697.727 194.949H686.862C681.915 194.949 678.28 193.787 675.956 191.464C673.633 189.113 672.471 185.478 672.471 180.558C672.471 175.638 673.619 172.03 675.915 169.734C678.239 167.411 681.86 166.249 686.78 166.249H697.686C702.196 166.249 705.599 167.233 707.895 169.201C710.219 171.142 711.544 174.189 711.872 178.344C711.954 179.164 711.763 179.82 711.298 180.312C710.834 180.777 710.178 181.009 709.33 181.009C708.538 181.009 707.923 180.79 707.485 180.353C707.048 179.888 706.788 179.26 706.706 178.467C706.488 175.816 705.695 173.984 704.328 172.973C702.962 171.934 700.748 171.415 697.686 171.415H686.78C683.282 171.415 680.876 172.085 679.564 173.424C678.28 174.736 677.637 177.114 677.637 180.558C677.637 184.002 678.293 186.407 679.605 187.774C680.945 189.113 683.364 189.783 686.862 189.783H697.727C702.893 189.783 706.706 191.013 709.166 193.473C711.626 195.906 712.856 199.719 712.856 204.912C712.856 210.078 711.626 213.877 709.166 216.31C706.734 218.743 702.921 219.959 697.727 219.959H685.919Z" fill="#222222"/>
<rect y="188" width="208" height="2" fill="#222222"/>
<rect x="775" y="188" width="208" height="2" fill="#222222"/>
<path d="M9.45 101H30.744V75.8L41.328 65.594L74.718 101H102.438L55.44 52.238L96.768 12.8H69.804L30.744 49.214V12.8H9.45V101ZM115.516 101H136.81V67.862H157.096L180.406 101H207.118L179.902 66.098C191.746 61.94 197.668 51.104 197.668 40.394C197.668 26.534 188.092 12.8 168.688 12.8H115.516V101ZM136.81 30.566H163.522C171.586 30.566 175.618 35.48 175.618 40.394C175.618 45.308 171.586 50.222 163.522 50.222H136.81V30.566ZM220.229 101H241.523V12.8H220.229V101ZM347.532 23.384C336.444 15.446 318.048 10.406 301.164 10.406C280.752 10.406 262.608 17.966 262.608 37.37C262.608 72.272 324.474 61.184 324.474 77.186C324.474 82.73 317.166 85.25 307.842 85.25C294.486 85.25 276.72 80.462 268.404 72.776L257.946 90.416C268.656 98.732 287.808 103.898 305.7 103.898C327.624 103.898 347.784 96.086 347.784 76.682C347.784 41.528 285.666 53.12 285.666 37.748C285.666 31.7 292.722 29.054 302.046 29.054C313.89 29.054 329.136 33.464 337.2 40.52L347.532 23.384ZM355.562 12.8V30.314H394.118V101H415.412V30.44H453.968V12.8H355.562ZM488.109 83.234V65.72H536.997V48.08H488.109V30.566H545.439V12.8H466.815V101H546.321V83.234H488.109ZM561.684 101H582.978V39.512L637.158 101H658.326V12.8H637.158V74.288L582.978 12.8H561.684V101ZM764.291 23.384C753.203 15.446 734.807 10.406 717.923 10.406C697.511 10.406 679.367 17.966 679.367 37.37C679.367 72.272 741.233 61.184 741.233 77.186C741.233 82.73 733.925 85.25 724.601 85.25C711.245 85.25 693.479 80.462 685.163 72.776L674.705 90.416C685.415 98.732 704.567 103.898 722.459 103.898C744.383 103.898 764.543 96.086 764.543 76.682C764.543 41.528 702.425 53.12 702.425 37.748C702.425 31.7 709.481 29.054 718.805 29.054C730.649 29.054 745.895 33.464 753.959 40.52L764.291 23.384ZM802.371 83.234V65.72H851.259V48.08H802.371V30.566H859.701V12.8H781.077V101H860.583V83.234H802.371ZM875.946 101H897.24V39.512L951.42 101H972.588V12.8H951.42V74.288L897.24 12.8H875.946V101Z" fill="#222222"/>
</svg>
