<svg width="601" height="111" viewBox="0 0 601 111" fill="none" xmlns="http://www.w3.org/2000/svg">
<path d="M27.3 27.3H81.8V81.8H27.3V27.3ZM81.9 0H27.3C12.2 0 0 12.2 0 27.3V81.8C0 96.8 12.2 109.1 27.3 109.1H81.8C96.9 109.1 109.1 96.9 109.1 81.8V27.3C109.1 12.2 96.9 0 81.9 0Z" fill="#00509E"/>
<path d="M54.4 32C42 32 32 42 32 54.4C32 66.8 42 76.8 54.4 76.8C66.8 76.8 76.8 66.8 76.8 54.4C76.8 42 66.8 32 54.4 32Z" fill="#00509E"/>
<path d="M185.4 0.199951L238.5 77.4V17.9999L238.4 3.79996H222.4V0.199951H256.7V3.79996H243.4L243.3 17.9999V109.9L240.8 110.7L169.6 7.09995V90.3L169.8 104.8H186.2V108.5H150.7V104.8H164.9L165 90.3V17.9999L164.9 3.79996H150.7V0.199951H185.4Z" fill="black"/>
<path d="M362.6 0.199951V34.9H358C357.5 29.5 356.9 22.8 352.2 14.8C346.7 5.39996 339.2 4.99995 331.8 4.69995H323.2L323 18.4999V89.3L323.2 105H339.8V108.7H289.5V105H306.1L306.3 89.3V18.4999L306.1 4.69995H299C290.1 4.79995 283.3 4.79994 276.9 15.0999C271.8 23.1999 271.4 29.7 271.1 34.9H266.7V0.199951H362.6Z" fill="black"/>
<path d="M406.2 0.199951L459.3 77.4V17.9999L459.1 3.79996H443.2V0.199951H477.4V3.79996H464.2L464 17.9999V109.9L461.6 110.7L390.4 7.09995V90.3L390.5 104.8H406.9V108.5H371.5V104.8H385.6L385.8 90.3V17.9999L385.6 3.79996H371.5V0.199951H406.2Z" fill="black"/>
<path d="M537 0.199951V3.89996H521.8L521.6 16.9V75.4999C521.8 90.6999 522.1 105.1 550.6 105.1C579.5 105.1 581.3 92.5 581.8 78.9V16.9L581.7 3.89996H566.2V0.199951H600.1V3.89996H586.7L586.6 16.9V72.8C586.4 92.9 586.3 110.1 546.5 110.1C540.8 110.1 527.3 109.5 518.7 106C505 100.2 504.7 88.1999 504.6 73.4999V16.9999L504.5 3.99994H491.3V0.299957H537" fill="black"/>
</svg>
